# xmcd CD database file
#
# Track frame offsets:
#	150
#	748
#	19118
#	33084
#	46465
#	67653
#	94825
#	115355
#	152518
#	168649
#	187257
#	213114
#	232893
#	252761
#	272896
#	290771
#	309239
#
# Disc length: 4348 seconds
#
# Revision: 0
# Processed by: cddbd v1.5.2PL0 Copyright (c) Steve Scherf et al.
# Submitted via: CDex 1.51
#
DISCID=e010fa11
DTITLE=Roger Creager - Live Across Texas
DYEAR=2004
DGENRE=Country
TTITLE0=Introduction
TTITLE1=Things Look Good Around Here
TTITLE2=Mother's A Redneck, Too
TTITLE3=Shreveport To New Orleans
TTITLE4=Should've Learned By Now
TTITLE5=I Got The Guns
TTITLE6=Having Fun All Wrong
TTITLE7=Storybook
TTITLE8=Long Way To Mexico
TTITLE9=Good Old Days
TTITLE10=Late Night Case Of The Blues
TTITLE11=LA Freeway
TTITLE12=Rancho Grande
TTITLE13=The Everclear Song
TTITLE14=Love
TTITLE15=A Pirate Looks At Forty
TTITLE16=The Mucky Duck Outtakes
EXTD=YEAR: 2004
EXTT0=
EXTT1=
EXTT2=
EXTT3=
EXTT4=
EXTT5=
EXTT6=
EXTT7=
EXTT8=
EXTT9=
EXTT10=
EXTT11=
EXTT12=
EXTT13=
EXTT14=
EXTT15=
EXTT16=
PLAYORDER=
